<mxfile host="app.diagrams.net" modified="2024-02-16T08:37:56.496Z" agent="Mozilla/5.0 (Windows NT 10.0; Win64; x64) AppleWebKit/537.36 (KHTML, like Gecko) Chrome/121.0.0.0 Safari/537.36" etag="YoV1rnhuEbmSbkN_fb5c" version="23.1.5" type="device">
  <diagram id="C5RBs43oDa-KdzZeNtuy" name="Page-1">
    <mxGraphModel dx="1500" dy="746" grid="1" gridSize="10" guides="1" tooltips="1" connect="1" arrows="1" fold="1" page="1" pageScale="1" pageWidth="827" pageHeight="1169" math="0" shadow="0">
      <root>
        <mxCell id="WIyWlLk6GJQsqaUBKTNV-0" />
        <mxCell id="WIyWlLk6GJQsqaUBKTNV-1" parent="WIyWlLk6GJQsqaUBKTNV-0" />
        <mxCell id="WIyWlLk6GJQsqaUBKTNV-2" value="" style="rounded=0;html=1;jettySize=auto;orthogonalLoop=1;fontSize=11;endArrow=block;endFill=0;endSize=8;strokeWidth=1;shadow=0;labelBackgroundColor=none;edgeStyle=orthogonalEdgeStyle;" parent="WIyWlLk6GJQsqaUBKTNV-1" source="WIyWlLk6GJQsqaUBKTNV-3" target="WIyWlLk6GJQsqaUBKTNV-6" edge="1">
          <mxGeometry relative="1" as="geometry" />
        </mxCell>
        <mxCell id="WIyWlLk6GJQsqaUBKTNV-3" value="Open App" style="rounded=1;whiteSpace=wrap;html=1;fontSize=12;glass=0;strokeWidth=1;shadow=0;" parent="WIyWlLk6GJQsqaUBKTNV-1" vertex="1">
          <mxGeometry x="160" y="80" width="120" height="40" as="geometry" />
        </mxCell>
        <mxCell id="WIyWlLk6GJQsqaUBKTNV-5" value="No" style="edgeStyle=orthogonalEdgeStyle;rounded=0;html=1;jettySize=auto;orthogonalLoop=1;fontSize=11;endArrow=block;endFill=0;endSize=8;strokeWidth=1;shadow=0;labelBackgroundColor=none;" parent="WIyWlLk6GJQsqaUBKTNV-1" source="WIyWlLk6GJQsqaUBKTNV-6" target="WIyWlLk6GJQsqaUBKTNV-7" edge="1">
          <mxGeometry y="10" relative="1" as="geometry">
            <mxPoint as="offset" />
          </mxGeometry>
        </mxCell>
        <mxCell id="WIyWlLk6GJQsqaUBKTNV-6" value="User&lt;br&gt;Login" style="rhombus;whiteSpace=wrap;html=1;shadow=0;fontFamily=Helvetica;fontSize=12;align=center;strokeWidth=1;spacing=6;spacingTop=-4;" parent="WIyWlLk6GJQsqaUBKTNV-1" vertex="1">
          <mxGeometry x="170" y="170" width="100" height="80" as="geometry" />
        </mxCell>
        <mxCell id="WIyWlLk6GJQsqaUBKTNV-7" value="Splash Page" style="rounded=1;whiteSpace=wrap;html=1;fontSize=12;glass=0;strokeWidth=1;shadow=0;" parent="WIyWlLk6GJQsqaUBKTNV-1" vertex="1">
          <mxGeometry x="320" y="190" width="90" height="40" as="geometry" />
        </mxCell>
        <mxCell id="VNFVfy_MzCveKOspOZjb-0" value="No" style="edgeStyle=orthogonalEdgeStyle;rounded=0;html=1;jettySize=auto;orthogonalLoop=1;fontSize=11;endArrow=block;endFill=0;endSize=8;strokeWidth=1;shadow=0;labelBackgroundColor=none;" edge="1" parent="WIyWlLk6GJQsqaUBKTNV-1">
          <mxGeometry y="10" relative="1" as="geometry">
            <mxPoint as="offset" />
            <mxPoint x="412" y="209.5" as="sourcePoint" />
            <mxPoint x="462" y="209.5" as="targetPoint" />
          </mxGeometry>
        </mxCell>
        <mxCell id="VNFVfy_MzCveKOspOZjb-2" value="Have an account?" style="rhombus;whiteSpace=wrap;html=1;shadow=0;fontFamily=Helvetica;fontSize=12;align=center;strokeWidth=1;spacing=6;spacingTop=-4;" vertex="1" parent="WIyWlLk6GJQsqaUBKTNV-1">
          <mxGeometry x="462" y="170" width="100" height="80" as="geometry" />
        </mxCell>
        <mxCell id="VNFVfy_MzCveKOspOZjb-3" value="Yes" style="rounded=0;html=1;jettySize=auto;orthogonalLoop=1;fontSize=11;endArrow=block;endFill=0;endSize=8;strokeWidth=1;shadow=0;labelBackgroundColor=none;edgeStyle=orthogonalEdgeStyle;" edge="1" parent="WIyWlLk6GJQsqaUBKTNV-1">
          <mxGeometry y="20" relative="1" as="geometry">
            <mxPoint as="offset" />
            <mxPoint x="511.5" y="250" as="sourcePoint" />
            <mxPoint x="511.5" y="290" as="targetPoint" />
          </mxGeometry>
        </mxCell>
        <mxCell id="VNFVfy_MzCveKOspOZjb-4" value="Sign In" style="rounded=1;whiteSpace=wrap;html=1;fontSize=12;glass=0;strokeWidth=1;shadow=0;" vertex="1" parent="WIyWlLk6GJQsqaUBKTNV-1">
          <mxGeometry x="472" y="290" width="90" height="40" as="geometry" />
        </mxCell>
        <mxCell id="VNFVfy_MzCveKOspOZjb-5" value="Sign Up" style="rounded=1;whiteSpace=wrap;html=1;fontSize=12;glass=0;strokeWidth=1;shadow=0;" vertex="1" parent="WIyWlLk6GJQsqaUBKTNV-1">
          <mxGeometry x="613" y="190" width="90" height="40" as="geometry" />
        </mxCell>
        <mxCell id="VNFVfy_MzCveKOspOZjb-6" value="No" style="edgeStyle=orthogonalEdgeStyle;rounded=0;html=1;jettySize=auto;orthogonalLoop=1;fontSize=11;endArrow=block;endFill=0;endSize=8;strokeWidth=1;shadow=0;labelBackgroundColor=none;" edge="1" parent="WIyWlLk6GJQsqaUBKTNV-1">
          <mxGeometry y="10" relative="1" as="geometry">
            <mxPoint as="offset" />
            <mxPoint x="705" y="209.5" as="sourcePoint" />
            <mxPoint x="755" y="209.5" as="targetPoint" />
          </mxGeometry>
        </mxCell>
        <mxCell id="VNFVfy_MzCveKOspOZjb-7" value="No" style="edgeStyle=orthogonalEdgeStyle;rounded=0;html=1;jettySize=auto;orthogonalLoop=1;fontSize=11;endArrow=block;endFill=0;endSize=8;strokeWidth=1;shadow=0;labelBackgroundColor=none;" edge="1" parent="WIyWlLk6GJQsqaUBKTNV-1">
          <mxGeometry y="10" relative="1" as="geometry">
            <mxPoint as="offset" />
            <mxPoint x="563" y="209.5" as="sourcePoint" />
            <mxPoint x="613" y="209.5" as="targetPoint" />
          </mxGeometry>
        </mxCell>
        <mxCell id="VNFVfy_MzCveKOspOZjb-8" value="Collect Informations" style="rounded=1;whiteSpace=wrap;html=1;fontSize=12;glass=0;strokeWidth=1;shadow=0;" vertex="1" parent="WIyWlLk6GJQsqaUBKTNV-1">
          <mxGeometry x="757" y="190" width="90" height="40" as="geometry" />
        </mxCell>
        <mxCell id="VNFVfy_MzCveKOspOZjb-9" value="Home" style="rounded=1;whiteSpace=wrap;html=1;fontSize=12;glass=0;strokeWidth=1;shadow=0;" vertex="1" parent="WIyWlLk6GJQsqaUBKTNV-1">
          <mxGeometry x="457" y="420" width="120" height="40" as="geometry" />
        </mxCell>
        <mxCell id="VNFVfy_MzCveKOspOZjb-10" value="" style="endArrow=classic;html=1;rounded=0;exitX=0.5;exitY=1;exitDx=0;exitDy=0;entryX=0.5;entryY=0;entryDx=0;entryDy=0;" edge="1" parent="WIyWlLk6GJQsqaUBKTNV-1" source="WIyWlLk6GJQsqaUBKTNV-6" target="VNFVfy_MzCveKOspOZjb-9">
          <mxGeometry width="50" height="50" relative="1" as="geometry">
            <mxPoint x="390" y="360" as="sourcePoint" />
            <mxPoint x="620" y="360" as="targetPoint" />
            <Array as="points">
              <mxPoint x="220" y="360" />
              <mxPoint x="517" y="360" />
            </Array>
          </mxGeometry>
        </mxCell>
        <mxCell id="VNFVfy_MzCveKOspOZjb-11" value="" style="endArrow=none;html=1;rounded=0;" edge="1" parent="WIyWlLk6GJQsqaUBKTNV-1">
          <mxGeometry width="50" height="50" relative="1" as="geometry">
            <mxPoint x="516" y="360" as="sourcePoint" />
            <mxPoint x="516" y="330" as="targetPoint" />
          </mxGeometry>
        </mxCell>
        <mxCell id="VNFVfy_MzCveKOspOZjb-12" value="" style="endArrow=none;html=1;rounded=0;" edge="1" parent="WIyWlLk6GJQsqaUBKTNV-1">
          <mxGeometry width="50" height="50" relative="1" as="geometry">
            <mxPoint x="490" y="360" as="sourcePoint" />
            <mxPoint x="800" y="230" as="targetPoint" />
            <Array as="points">
              <mxPoint x="800" y="360" />
            </Array>
          </mxGeometry>
        </mxCell>
        <mxCell id="VNFVfy_MzCveKOspOZjb-13" value="Edit Profile" style="rounded=1;whiteSpace=wrap;html=1;fontSize=12;glass=0;strokeWidth=1;shadow=0;" vertex="1" parent="WIyWlLk6GJQsqaUBKTNV-1">
          <mxGeometry x="720" y="420" width="90" height="40" as="geometry" />
        </mxCell>
        <mxCell id="VNFVfy_MzCveKOspOZjb-15" value="" style="endArrow=none;html=1;rounded=0;" edge="1" parent="WIyWlLk6GJQsqaUBKTNV-1">
          <mxGeometry width="50" height="50" relative="1" as="geometry">
            <mxPoint x="740" y="640" as="sourcePoint" />
            <mxPoint x="740" y="460" as="targetPoint" />
          </mxGeometry>
        </mxCell>
        <mxCell id="VNFVfy_MzCveKOspOZjb-17" value="FrustName" style="rounded=1;whiteSpace=wrap;html=1;fontSize=12;glass=0;strokeWidth=1;shadow=0;" vertex="1" parent="WIyWlLk6GJQsqaUBKTNV-1">
          <mxGeometry x="757" y="480" width="90" height="20" as="geometry" />
        </mxCell>
        <mxCell id="VNFVfy_MzCveKOspOZjb-18" value="LastName" style="rounded=1;whiteSpace=wrap;html=1;fontSize=12;glass=0;strokeWidth=1;shadow=0;" vertex="1" parent="WIyWlLk6GJQsqaUBKTNV-1">
          <mxGeometry x="757" y="510" width="90" height="20" as="geometry" />
        </mxCell>
        <mxCell id="VNFVfy_MzCveKOspOZjb-21" value="Address" style="rounded=1;whiteSpace=wrap;html=1;fontSize=12;glass=0;strokeWidth=1;shadow=0;" vertex="1" parent="WIyWlLk6GJQsqaUBKTNV-1">
          <mxGeometry x="757" y="540" width="90" height="20" as="geometry" />
        </mxCell>
        <mxCell id="VNFVfy_MzCveKOspOZjb-22" value="PostalCode" style="rounded=1;whiteSpace=wrap;html=1;fontSize=12;glass=0;strokeWidth=1;shadow=0;" vertex="1" parent="WIyWlLk6GJQsqaUBKTNV-1">
          <mxGeometry x="757" y="571.5" width="90" height="20" as="geometry" />
        </mxCell>
        <mxCell id="VNFVfy_MzCveKOspOZjb-23" value="PhoneNumber" style="rounded=1;whiteSpace=wrap;html=1;fontSize=12;glass=0;strokeWidth=1;shadow=0;" vertex="1" parent="WIyWlLk6GJQsqaUBKTNV-1">
          <mxGeometry x="757" y="600" width="90" height="20" as="geometry" />
        </mxCell>
        <mxCell id="VNFVfy_MzCveKOspOZjb-24" value="ImgUrl" style="rounded=1;whiteSpace=wrap;html=1;fontSize=12;glass=0;strokeWidth=1;shadow=0;" vertex="1" parent="WIyWlLk6GJQsqaUBKTNV-1">
          <mxGeometry x="757" y="630" width="90" height="20" as="geometry" />
        </mxCell>
        <mxCell id="VNFVfy_MzCveKOspOZjb-25" value="" style="endArrow=none;html=1;rounded=0;" edge="1" parent="WIyWlLk6GJQsqaUBKTNV-1">
          <mxGeometry width="50" height="50" relative="1" as="geometry">
            <mxPoint x="740" y="490" as="sourcePoint" />
            <mxPoint x="757" y="490" as="targetPoint" />
          </mxGeometry>
        </mxCell>
        <mxCell id="VNFVfy_MzCveKOspOZjb-26" value="" style="endArrow=none;html=1;rounded=0;" edge="1" parent="WIyWlLk6GJQsqaUBKTNV-1">
          <mxGeometry width="50" height="50" relative="1" as="geometry">
            <mxPoint x="740" y="519.84" as="sourcePoint" />
            <mxPoint x="757" y="519.84" as="targetPoint" />
          </mxGeometry>
        </mxCell>
        <mxCell id="VNFVfy_MzCveKOspOZjb-27" value="" style="endArrow=none;html=1;rounded=0;" edge="1" parent="WIyWlLk6GJQsqaUBKTNV-1">
          <mxGeometry width="50" height="50" relative="1" as="geometry">
            <mxPoint x="740" y="549.84" as="sourcePoint" />
            <mxPoint x="757" y="549.84" as="targetPoint" />
          </mxGeometry>
        </mxCell>
        <mxCell id="VNFVfy_MzCveKOspOZjb-28" value="" style="endArrow=none;html=1;rounded=0;" edge="1" parent="WIyWlLk6GJQsqaUBKTNV-1">
          <mxGeometry width="50" height="50" relative="1" as="geometry">
            <mxPoint x="740" y="581.34" as="sourcePoint" />
            <mxPoint x="757" y="581.34" as="targetPoint" />
          </mxGeometry>
        </mxCell>
        <mxCell id="VNFVfy_MzCveKOspOZjb-29" value="" style="endArrow=none;html=1;rounded=0;" edge="1" parent="WIyWlLk6GJQsqaUBKTNV-1">
          <mxGeometry width="50" height="50" relative="1" as="geometry">
            <mxPoint x="740" y="609.84" as="sourcePoint" />
            <mxPoint x="757" y="609.84" as="targetPoint" />
          </mxGeometry>
        </mxCell>
        <mxCell id="VNFVfy_MzCveKOspOZjb-30" value="" style="endArrow=none;html=1;rounded=0;" edge="1" parent="WIyWlLk6GJQsqaUBKTNV-1">
          <mxGeometry width="50" height="50" relative="1" as="geometry">
            <mxPoint x="740" y="639.84" as="sourcePoint" />
            <mxPoint x="757" y="639.84" as="targetPoint" />
          </mxGeometry>
        </mxCell>
        <mxCell id="VNFVfy_MzCveKOspOZjb-57" value="" style="endArrow=none;html=1;rounded=0;" edge="1" parent="WIyWlLk6GJQsqaUBKTNV-1">
          <mxGeometry width="50" height="50" relative="1" as="geometry">
            <mxPoint x="480" y="620" as="sourcePoint" />
            <mxPoint x="480" y="460" as="targetPoint" />
          </mxGeometry>
        </mxCell>
        <mxCell id="VNFVfy_MzCveKOspOZjb-58" value="Search" style="rounded=1;whiteSpace=wrap;html=1;fontSize=12;glass=0;strokeWidth=1;shadow=0;" vertex="1" parent="WIyWlLk6GJQsqaUBKTNV-1">
          <mxGeometry x="497" y="480" width="90" height="20" as="geometry" />
        </mxCell>
        <mxCell id="VNFVfy_MzCveKOspOZjb-59" value="SomeServices" style="rounded=1;whiteSpace=wrap;html=1;fontSize=12;glass=0;strokeWidth=1;shadow=0;" vertex="1" parent="WIyWlLk6GJQsqaUBKTNV-1">
          <mxGeometry x="497" y="510" width="90" height="20" as="geometry" />
        </mxCell>
        <mxCell id="VNFVfy_MzCveKOspOZjb-60" value="Review" style="rounded=1;whiteSpace=wrap;html=1;fontSize=12;glass=0;strokeWidth=1;shadow=0;" vertex="1" parent="WIyWlLk6GJQsqaUBKTNV-1">
          <mxGeometry x="497" y="540" width="90" height="20" as="geometry" />
        </mxCell>
        <mxCell id="VNFVfy_MzCveKOspOZjb-61" value="FAQ" style="rounded=1;whiteSpace=wrap;html=1;fontSize=12;glass=0;strokeWidth=1;shadow=0;" vertex="1" parent="WIyWlLk6GJQsqaUBKTNV-1">
          <mxGeometry x="497" y="571.5" width="90" height="20" as="geometry" />
        </mxCell>
        <mxCell id="VNFVfy_MzCveKOspOZjb-62" value="Address Company" style="rounded=1;whiteSpace=wrap;html=1;fontSize=12;glass=0;strokeWidth=1;shadow=0;" vertex="1" parent="WIyWlLk6GJQsqaUBKTNV-1">
          <mxGeometry x="497" y="600" width="90" height="40" as="geometry" />
        </mxCell>
        <mxCell id="VNFVfy_MzCveKOspOZjb-64" value="" style="endArrow=none;html=1;rounded=0;" edge="1" parent="WIyWlLk6GJQsqaUBKTNV-1">
          <mxGeometry width="50" height="50" relative="1" as="geometry">
            <mxPoint x="480" y="490" as="sourcePoint" />
            <mxPoint x="497" y="490" as="targetPoint" />
          </mxGeometry>
        </mxCell>
        <mxCell id="VNFVfy_MzCveKOspOZjb-65" value="" style="endArrow=none;html=1;rounded=0;" edge="1" parent="WIyWlLk6GJQsqaUBKTNV-1">
          <mxGeometry width="50" height="50" relative="1" as="geometry">
            <mxPoint x="480" y="519.84" as="sourcePoint" />
            <mxPoint x="497" y="519.84" as="targetPoint" />
          </mxGeometry>
        </mxCell>
        <mxCell id="VNFVfy_MzCveKOspOZjb-66" value="" style="endArrow=none;html=1;rounded=0;" edge="1" parent="WIyWlLk6GJQsqaUBKTNV-1">
          <mxGeometry width="50" height="50" relative="1" as="geometry">
            <mxPoint x="480" y="549.84" as="sourcePoint" />
            <mxPoint x="497" y="549.84" as="targetPoint" />
          </mxGeometry>
        </mxCell>
        <mxCell id="VNFVfy_MzCveKOspOZjb-67" value="" style="endArrow=none;html=1;rounded=0;" edge="1" parent="WIyWlLk6GJQsqaUBKTNV-1">
          <mxGeometry width="50" height="50" relative="1" as="geometry">
            <mxPoint x="480" y="581.34" as="sourcePoint" />
            <mxPoint x="497" y="581.34" as="targetPoint" />
          </mxGeometry>
        </mxCell>
        <mxCell id="VNFVfy_MzCveKOspOZjb-68" value="" style="endArrow=none;html=1;rounded=0;" edge="1" parent="WIyWlLk6GJQsqaUBKTNV-1">
          <mxGeometry width="50" height="50" relative="1" as="geometry">
            <mxPoint x="480" y="620.84" as="sourcePoint" />
            <mxPoint x="497" y="620.84" as="targetPoint" />
          </mxGeometry>
        </mxCell>
        <mxCell id="VNFVfy_MzCveKOspOZjb-85" value="All Services" style="rounded=1;whiteSpace=wrap;html=1;fontSize=12;glass=0;strokeWidth=1;shadow=0;" vertex="1" parent="WIyWlLk6GJQsqaUBKTNV-1">
          <mxGeometry x="554" y="700" width="90" height="20" as="geometry" />
        </mxCell>
        <mxCell id="VNFVfy_MzCveKOspOZjb-86" value="ServicesId" style="rounded=1;whiteSpace=wrap;html=1;fontSize=12;glass=0;strokeWidth=1;shadow=0;" vertex="1" parent="WIyWlLk6GJQsqaUBKTNV-1">
          <mxGeometry x="683" y="700" width="90" height="20" as="geometry" />
        </mxCell>
        <mxCell id="VNFVfy_MzCveKOspOZjb-93" value="" style="endArrow=none;html=1;rounded=0;" edge="1" parent="WIyWlLk6GJQsqaUBKTNV-1">
          <mxGeometry width="50" height="50" relative="1" as="geometry">
            <mxPoint x="700" y="780" as="sourcePoint" />
            <mxPoint x="700" y="720" as="targetPoint" />
          </mxGeometry>
        </mxCell>
        <mxCell id="VNFVfy_MzCveKOspOZjb-94" value="Add to Cart" style="rounded=1;whiteSpace=wrap;html=1;fontSize=12;glass=0;strokeWidth=1;shadow=0;" vertex="1" parent="WIyWlLk6GJQsqaUBKTNV-1">
          <mxGeometry x="717" y="740" width="90" height="20" as="geometry" />
        </mxCell>
        <mxCell id="VNFVfy_MzCveKOspOZjb-95" value="Buy" style="rounded=1;whiteSpace=wrap;html=1;fontSize=12;glass=0;strokeWidth=1;shadow=0;" vertex="1" parent="WIyWlLk6GJQsqaUBKTNV-1">
          <mxGeometry x="717" y="770" width="90" height="20" as="geometry" />
        </mxCell>
        <mxCell id="VNFVfy_MzCveKOspOZjb-100" value="" style="endArrow=none;html=1;rounded=0;" edge="1" parent="WIyWlLk6GJQsqaUBKTNV-1">
          <mxGeometry width="50" height="50" relative="1" as="geometry">
            <mxPoint x="700" y="750" as="sourcePoint" />
            <mxPoint x="717" y="750" as="targetPoint" />
          </mxGeometry>
        </mxCell>
        <mxCell id="VNFVfy_MzCveKOspOZjb-101" value="" style="endArrow=none;html=1;rounded=0;" edge="1" parent="WIyWlLk6GJQsqaUBKTNV-1">
          <mxGeometry width="50" height="50" relative="1" as="geometry">
            <mxPoint x="700" y="779.84" as="sourcePoint" />
            <mxPoint x="717" y="779.84" as="targetPoint" />
          </mxGeometry>
        </mxCell>
        <mxCell id="VNFVfy_MzCveKOspOZjb-106" value="" style="endArrow=none;html=1;rounded=0;entryX=1;entryY=0.5;entryDx=0;entryDy=0;" edge="1" parent="WIyWlLk6GJQsqaUBKTNV-1" target="VNFVfy_MzCveKOspOZjb-59">
          <mxGeometry width="50" height="50" relative="1" as="geometry">
            <mxPoint x="660" y="680" as="sourcePoint" />
            <mxPoint x="480" y="580" as="targetPoint" />
            <Array as="points">
              <mxPoint x="660" y="520" />
            </Array>
          </mxGeometry>
        </mxCell>
        <mxCell id="VNFVfy_MzCveKOspOZjb-107" value="" style="endArrow=none;html=1;rounded=0;" edge="1" parent="WIyWlLk6GJQsqaUBKTNV-1">
          <mxGeometry width="50" height="50" relative="1" as="geometry">
            <mxPoint x="597" y="680" as="sourcePoint" />
            <mxPoint x="727" y="680" as="targetPoint" />
          </mxGeometry>
        </mxCell>
        <mxCell id="VNFVfy_MzCveKOspOZjb-108" value="" style="endArrow=classic;html=1;rounded=0;entryX=0.5;entryY=0;entryDx=0;entryDy=0;" edge="1" parent="WIyWlLk6GJQsqaUBKTNV-1" target="VNFVfy_MzCveKOspOZjb-85">
          <mxGeometry width="50" height="50" relative="1" as="geometry">
            <mxPoint x="599" y="680" as="sourcePoint" />
            <mxPoint x="477" y="590" as="targetPoint" />
          </mxGeometry>
        </mxCell>
        <mxCell id="VNFVfy_MzCveKOspOZjb-109" value="" style="endArrow=classic;html=1;rounded=0;entryX=0.5;entryY=0;entryDx=0;entryDy=0;" edge="1" parent="WIyWlLk6GJQsqaUBKTNV-1">
          <mxGeometry width="50" height="50" relative="1" as="geometry">
            <mxPoint x="727.47" y="680" as="sourcePoint" />
            <mxPoint x="727.47" y="700" as="targetPoint" />
          </mxGeometry>
        </mxCell>
        <mxCell id="VNFVfy_MzCveKOspOZjb-110" value="" style="endArrow=classic;html=1;rounded=0;exitX=1;exitY=0.5;exitDx=0;exitDy=0;entryX=0;entryY=0.5;entryDx=0;entryDy=0;" edge="1" parent="WIyWlLk6GJQsqaUBKTNV-1" source="VNFVfy_MzCveKOspOZjb-85" target="VNFVfy_MzCveKOspOZjb-86">
          <mxGeometry width="50" height="50" relative="1" as="geometry">
            <mxPoint x="647" y="720" as="sourcePoint" />
            <mxPoint x="697" y="670" as="targetPoint" />
          </mxGeometry>
        </mxCell>
        <mxCell id="VNFVfy_MzCveKOspOZjb-113" value="" style="endArrow=classic;html=1;rounded=0;entryX=1;entryY=0.5;entryDx=0;entryDy=0;exitX=0.5;exitY=0;exitDx=0;exitDy=0;" edge="1" parent="WIyWlLk6GJQsqaUBKTNV-1" source="VNFVfy_MzCveKOspOZjb-114" target="VNFVfy_MzCveKOspOZjb-13">
          <mxGeometry width="50" height="50" relative="1" as="geometry">
            <mxPoint x="920" y="440" as="sourcePoint" />
            <mxPoint x="970" y="390" as="targetPoint" />
            <Array as="points">
              <mxPoint x="925" y="440" />
            </Array>
          </mxGeometry>
        </mxCell>
        <mxCell id="VNFVfy_MzCveKOspOZjb-114" value="Already&lt;br&gt;update&lt;br&gt;account" style="rhombus;whiteSpace=wrap;html=1;shadow=0;fontFamily=Helvetica;fontSize=12;align=center;strokeWidth=1;spacing=6;spacingTop=-4;" vertex="1" parent="WIyWlLk6GJQsqaUBKTNV-1">
          <mxGeometry x="870" y="740" width="110" height="80" as="geometry" />
        </mxCell>
        <mxCell id="VNFVfy_MzCveKOspOZjb-116" value="" style="endArrow=none;html=1;rounded=0;exitX=1;exitY=0.5;exitDx=0;exitDy=0;" edge="1" parent="WIyWlLk6GJQsqaUBKTNV-1" source="VNFVfy_MzCveKOspOZjb-94">
          <mxGeometry width="50" height="50" relative="1" as="geometry">
            <mxPoint x="810" y="750" as="sourcePoint" />
            <mxPoint x="850" y="780" as="targetPoint" />
            <Array as="points">
              <mxPoint x="850" y="750" />
            </Array>
          </mxGeometry>
        </mxCell>
        <mxCell id="VNFVfy_MzCveKOspOZjb-117" value="" style="endArrow=classic;html=1;rounded=0;exitX=1;exitY=0.5;exitDx=0;exitDy=0;entryX=0;entryY=0.5;entryDx=0;entryDy=0;" edge="1" parent="WIyWlLk6GJQsqaUBKTNV-1" source="VNFVfy_MzCveKOspOZjb-95" target="VNFVfy_MzCveKOspOZjb-114">
          <mxGeometry width="50" height="50" relative="1" as="geometry">
            <mxPoint x="810" y="790" as="sourcePoint" />
            <mxPoint x="860" y="740" as="targetPoint" />
          </mxGeometry>
        </mxCell>
        <mxCell id="VNFVfy_MzCveKOspOZjb-119" value="" style="endArrow=classic;html=1;rounded=0;exitX=0.5;exitY=1;exitDx=0;exitDy=0;" edge="1" parent="WIyWlLk6GJQsqaUBKTNV-1" source="VNFVfy_MzCveKOspOZjb-114">
          <mxGeometry width="50" height="50" relative="1" as="geometry">
            <mxPoint x="960" y="890" as="sourcePoint" />
            <mxPoint x="925" y="880" as="targetPoint" />
          </mxGeometry>
        </mxCell>
        <mxCell id="VNFVfy_MzCveKOspOZjb-120" value="Book" style="rounded=1;whiteSpace=wrap;html=1;fontSize=12;glass=0;strokeWidth=1;shadow=0;" vertex="1" parent="WIyWlLk6GJQsqaUBKTNV-1">
          <mxGeometry x="880" y="880" width="90" height="40" as="geometry" />
        </mxCell>
        <mxCell id="VNFVfy_MzCveKOspOZjb-121" value="" style="endArrow=classic;html=1;rounded=0;exitX=1;exitY=0.5;exitDx=0;exitDy=0;entryX=0;entryY=0.5;entryDx=0;entryDy=0;" edge="1" parent="WIyWlLk6GJQsqaUBKTNV-1" source="VNFVfy_MzCveKOspOZjb-120" target="VNFVfy_MzCveKOspOZjb-123">
          <mxGeometry width="50" height="50" relative="1" as="geometry">
            <mxPoint x="1060" y="1010" as="sourcePoint" />
            <mxPoint x="1010" y="900" as="targetPoint" />
            <Array as="points">
              <mxPoint x="1000" y="900" />
              <mxPoint x="1000" y="915" />
            </Array>
          </mxGeometry>
        </mxCell>
        <mxCell id="VNFVfy_MzCveKOspOZjb-122" value="Scedule" style="rounded=1;whiteSpace=wrap;html=1;fontSize=12;glass=0;strokeWidth=1;shadow=0;" vertex="1" parent="WIyWlLk6GJQsqaUBKTNV-1">
          <mxGeometry x="1040" y="875" width="90" height="20" as="geometry" />
        </mxCell>
        <mxCell id="VNFVfy_MzCveKOspOZjb-123" value="Person" style="rounded=1;whiteSpace=wrap;html=1;fontSize=12;glass=0;strokeWidth=1;shadow=0;" vertex="1" parent="WIyWlLk6GJQsqaUBKTNV-1">
          <mxGeometry x="1040" y="905" width="90" height="20" as="geometry" />
        </mxCell>
        <mxCell id="VNFVfy_MzCveKOspOZjb-126" value="Cart" style="rounded=1;whiteSpace=wrap;html=1;fontSize=12;glass=0;strokeWidth=1;shadow=0;" vertex="1" parent="WIyWlLk6GJQsqaUBKTNV-1">
          <mxGeometry x="990" y="420" width="90" height="40" as="geometry" />
        </mxCell>
        <mxCell id="VNFVfy_MzCveKOspOZjb-127" value="" style="endArrow=classic;html=1;rounded=0;" edge="1" parent="WIyWlLk6GJQsqaUBKTNV-1">
          <mxGeometry width="50" height="50" relative="1" as="geometry">
            <mxPoint x="800" y="360" as="sourcePoint" />
            <mxPoint x="1040" y="420" as="targetPoint" />
            <Array as="points">
              <mxPoint x="1040" y="360" />
            </Array>
          </mxGeometry>
        </mxCell>
        <mxCell id="VNFVfy_MzCveKOspOZjb-128" value="" style="endArrow=classic;html=1;rounded=0;entryX=1;entryY=0.5;entryDx=0;entryDy=0;exitX=0.55;exitY=1.011;exitDx=0;exitDy=0;exitPerimeter=0;" edge="1" parent="WIyWlLk6GJQsqaUBKTNV-1" source="VNFVfy_MzCveKOspOZjb-126" target="VNFVfy_MzCveKOspOZjb-114">
          <mxGeometry width="50" height="50" relative="1" as="geometry">
            <mxPoint x="1050" y="470" as="sourcePoint" />
            <mxPoint x="1110" y="490" as="targetPoint" />
            <Array as="points">
              <mxPoint x="1040" y="780" />
            </Array>
          </mxGeometry>
        </mxCell>
        <mxCell id="VNFVfy_MzCveKOspOZjb-129" value="" style="endArrow=classic;html=1;rounded=0;entryX=0;entryY=0.5;entryDx=0;entryDy=0;" edge="1" parent="WIyWlLk6GJQsqaUBKTNV-1" target="VNFVfy_MzCveKOspOZjb-122">
          <mxGeometry width="50" height="50" relative="1" as="geometry">
            <mxPoint x="1000" y="900" as="sourcePoint" />
            <mxPoint x="1040" y="830" as="targetPoint" />
            <Array as="points">
              <mxPoint x="1000" y="885" />
            </Array>
          </mxGeometry>
        </mxCell>
        <mxCell id="VNFVfy_MzCveKOspOZjb-130" value="Payment" style="rounded=1;whiteSpace=wrap;html=1;fontSize=12;glass=0;strokeWidth=1;shadow=0;" vertex="1" parent="WIyWlLk6GJQsqaUBKTNV-1">
          <mxGeometry x="1151" y="670" width="90" height="40" as="geometry" />
        </mxCell>
        <mxCell id="VNFVfy_MzCveKOspOZjb-131" value="" style="endArrow=classic;html=1;rounded=0;exitX=1;exitY=0.5;exitDx=0;exitDy=0;entryX=0.547;entryY=1.014;entryDx=0;entryDy=0;entryPerimeter=0;" edge="1" parent="WIyWlLk6GJQsqaUBKTNV-1" source="VNFVfy_MzCveKOspOZjb-122" target="VNFVfy_MzCveKOspOZjb-130">
          <mxGeometry width="50" height="50" relative="1" as="geometry">
            <mxPoint x="1130" y="890" as="sourcePoint" />
            <mxPoint x="1180" y="840" as="targetPoint" />
            <Array as="points">
              <mxPoint x="1200" y="885" />
            </Array>
          </mxGeometry>
        </mxCell>
        <mxCell id="VNFVfy_MzCveKOspOZjb-132" value="" style="endArrow=none;html=1;rounded=0;exitX=1;exitY=0.5;exitDx=0;exitDy=0;" edge="1" parent="WIyWlLk6GJQsqaUBKTNV-1" source="VNFVfy_MzCveKOspOZjb-123">
          <mxGeometry width="50" height="50" relative="1" as="geometry">
            <mxPoint x="1200" y="950" as="sourcePoint" />
            <mxPoint x="1200" y="880" as="targetPoint" />
            <Array as="points">
              <mxPoint x="1200" y="915" />
            </Array>
          </mxGeometry>
        </mxCell>
        <mxCell id="VNFVfy_MzCveKOspOZjb-134" value="" style="endArrow=classic;html=1;rounded=0;entryX=0.5;entryY=0;entryDx=0;entryDy=0;" edge="1" parent="WIyWlLk6GJQsqaUBKTNV-1" target="VNFVfy_MzCveKOspOZjb-130">
          <mxGeometry width="50" height="50" relative="1" as="geometry">
            <mxPoint x="1080" y="440" as="sourcePoint" />
            <mxPoint x="1130" y="390" as="targetPoint" />
            <Array as="points">
              <mxPoint x="1196" y="440" />
            </Array>
          </mxGeometry>
        </mxCell>
        <mxCell id="VNFVfy_MzCveKOspOZjb-135" value="Transacsion" style="rounded=1;whiteSpace=wrap;html=1;" vertex="1" parent="WIyWlLk6GJQsqaUBKTNV-1">
          <mxGeometry x="1260" y="420" width="90" height="40" as="geometry" />
        </mxCell>
        <mxCell id="VNFVfy_MzCveKOspOZjb-136" value="" style="endArrow=classic;html=1;rounded=0;exitX=1;exitY=0.5;exitDx=0;exitDy=0;" edge="1" parent="WIyWlLk6GJQsqaUBKTNV-1" source="VNFVfy_MzCveKOspOZjb-130">
          <mxGeometry width="50" height="50" relative="1" as="geometry">
            <mxPoint x="1260" y="510" as="sourcePoint" />
            <mxPoint x="1310" y="460" as="targetPoint" />
            <Array as="points">
              <mxPoint x="1310" y="690" />
            </Array>
          </mxGeometry>
        </mxCell>
      </root>
    </mxGraphModel>
  </diagram>
</mxfile>
